<svg id="Component_1_3" data-name="Component 1 – 3" xmlns="http://www.w3.org/2000/svg" xmlns:xlink="http://www.w3.org/1999/xlink" width="35" height="35" viewBox="0 0 35 35">
  <defs>
    <clipPath id="clip-path">
      <rect id="Rectangle_885" data-name="Rectangle 885" width="35" height="35" fill="#f33"/>
    </clipPath>
  </defs>
  <g id="Mask_Group_18" data-name="Mask Group 18" clip-path="url(#clip-path)">
    <g id="Mask_Group_21" data-name="Mask Group 21" clip-path="url(#clip-path)">
      <g id="stroller" transform="translate(0)">
        <path id="Path_2735" data-name="Path 2735" d="M35,11.6q0-.511-.034-1.016H6.226L4.9,6.291A4.065,4.065,0,0,0,1.026,3.476a1.025,1.025,0,0,0,0,2.051A2.025,2.025,0,0,1,2.945,6.894c1.7,5.518,1.533,4.985,1.554,5.048.033.1.205.577,1.929,5.4a5.047,5.047,0,0,0,4.93,2.948h3.534l-.957,2.393A4.857,4.857,0,0,0,8.272,27.47a4.847,4.847,0,0,0,9.6,1.025H21.5a4.938,4.938,0,0,0,1.3,2.432,4.771,4.771,0,0,0,6.881,0A4.926,4.926,0,0,0,31.1,27.47a4.857,4.857,0,0,0-5.663-4.785l-.957-2.393h3.534a5.049,5.049,0,0,0,4.927-2.942C35.062,11.624,35,11.867,35,11.6ZM21.506,26.445H17.868a4.866,4.866,0,0,0-2.03-3L17.1,20.292h5.174l1.262,3.155A4.866,4.866,0,0,0,21.506,26.445Z" transform="translate(0 2.607)" fill="#7b52ab"/>
        <path id="Path_2736" data-name="Path 2736" d="M27.918,11.142C26.653,4.967,21.506,0,15.1,0H13.463a1.025,1.025,0,0,0-.973.7L9.028,11.142Z" transform="translate(6.771)" fill="#7b52ab"/>
      </g>
    </g>
  </g>
</svg>
