<svg id="Component_1_7" data-name="Component 1 – 7" xmlns="http://www.w3.org/2000/svg" xmlns:xlink="http://www.w3.org/1999/xlink" width="35" height="35" viewBox="0 0 35 35">
  <defs>
    <clipPath id="clip-path">
      <rect id="Rectangle_885" data-name="Rectangle 885" width="35" height="35" fill="#f33"/>
    </clipPath>
  </defs>
  <g id="Mask_Group_18" data-name="Mask Group 18" clip-path="url(#clip-path)">
    <g id="laptop" transform="translate(0 5.511)">
      <path id="Path_2707" data-name="Path 2707" d="M31.758,21.3V4.445a1.3,1.3,0,0,0-1.3-1.3H4.538a1.3,1.3,0,0,0-1.3,1.3V21.3L0,25.185a1.944,1.944,0,0,0,1.944,1.943H33.056A1.946,1.946,0,0,0,35,25.185ZM20.094,26.482H14.909a.324.324,0,0,1,0-.649h5.186a.325.325,0,0,1,.324.324A.328.328,0,0,1,20.094,26.482Zm-7.938-1.3L13.146,24h8.707l.991,1.187ZM29.934,19a1.133,1.133,0,0,1-1.13,1.131H6.2A1.135,1.135,0,0,1,5.066,19V5.444A1.133,1.133,0,0,1,6.2,4.313H28.8a1.135,1.135,0,0,1,1.13,1.131S29.934,19,29.934,19Z" transform="translate(0 -3.149)" fill="#7b52ab"/>
    </g>
  </g>
</svg>
