<svg xmlns="http://www.w3.org/2000/svg" width="140" height="140" viewBox="0 0 140 140">
  <g id="Group_1260" data-name="Group 1260" transform="translate(23876 22850)">
    <rect id="Rectangle_1071" data-name="Rectangle 1071" width="140" height="140" rx="30" transform="translate(-23876 -22850)" fill="#9768d1"/>
    <g id="Group_1259" data-name="Group 1259" transform="translate(-23468 -23430)">
      <path id="Subtraction_24" data-name="Subtraction 24" d="M32.816,33.571a30.668,30.668,0,0,1-12.79-2.778A32.728,32.728,0,0,1,9.583,23.215,35.5,35.5,0,0,1,2.542,11.977,37.331,37.331,0,0,1,0,0H3.576A33.8,33.8,0,0,0,5.832,10.587a31.948,31.948,0,0,0,6.276,10.1A29.167,29.167,0,0,0,21.417,27.5a27.258,27.258,0,0,0,22.8,0,29.182,29.182,0,0,0,9.309-6.812,31.947,31.947,0,0,0,6.276-10.1A33.8,33.8,0,0,0,62.057,0h3.621a13.028,13.028,0,0,0,3.342,8.481,10.75,10.75,0,0,0,16.163,0A13.029,13.029,0,0,0,88.526,0h3.581a13.258,13.258,0,0,0,3.238,8.481,10.2,10.2,0,0,0,15.657,0A13.259,13.259,0,0,0,114.241,0h3.576a16.609,16.609,0,0,1-1.151,6.117,15.775,15.775,0,0,1-3.138,5,14.583,14.583,0,0,1-4.654,3.367,13.77,13.77,0,0,1-11.4,0,14.579,14.579,0,0,1-4.655-3.367,15.657,15.657,0,0,1-2.524-3.626,15.675,15.675,0,0,1-2.586,3.626,14.928,14.928,0,0,1-4.768,3.367,14.419,14.419,0,0,1-11.677,0A14.927,14.927,0,0,1,66.5,11.112a15.66,15.66,0,0,1-2.163-2.861,37.216,37.216,0,0,1-1.241,3.726A35.5,35.5,0,0,1,56.05,23.215a32.728,32.728,0,0,1-10.444,7.577A30.668,30.668,0,0,1,32.816,33.571Z" transform="translate(-397.959 647.428)" fill="#fff"/>
      <path id="Union_8" data-name="Union 8" d="M3.572,33.572H0A35.956,35.956,0,0,1,2.568,21.144a34.66,34.66,0,0,1,7.041-11A32.714,32.714,0,0,1,20.053,2.721a31.421,31.421,0,0,1,25.579,0A32.7,32.7,0,0,1,56.076,10.14a34.665,34.665,0,0,1,7.042,11,35.949,35.949,0,0,1,2.567,12.426H62.112a32.549,32.549,0,0,0-2.285-11.066q-.072-.182-.147-.363H6.005q-.075.181-.147.363A32.555,32.555,0,0,0,3.573,33.571h0ZM57.525,17.857a30.914,30.914,0,0,0-3.975-5.244,29.142,29.142,0,0,0-9.309-6.67,27.786,27.786,0,0,0-22.8,0,29.149,29.149,0,0,0-9.309,6.67A30.916,30.916,0,0,0,8.16,17.857Z" transform="translate(-398 611)" fill="#fff"/>
      <circle id="Ellipse_51" data-name="Ellipse 51" cx="3.929" cy="3.929" r="3.929" transform="translate(-285.857 637.429)" fill="#fff"/>
      <circle id="Ellipse_52" data-name="Ellipse 52" cx="3.929" cy="3.929" r="3.929" transform="translate(-311.571 637.429)" fill="#fff"/>
      <circle id="Ellipse_53" data-name="Ellipse 53" cx="3.929" cy="3.929" r="3.929" transform="translate(-357.286 686)" fill="#fff"/>
      <circle id="Ellipse_54" data-name="Ellipse 54" cx="3.929" cy="3.929" r="3.929" transform="translate(-378 686)" fill="#fff"/>
      <circle id="Ellipse_42" data-name="Ellipse 42" cx="3.929" cy="3.929" r="3.929" transform="translate(-298.714 627.429)" fill="#fff"/>
    </g>
  </g>
</svg>
