<svg xmlns="http://www.w3.org/2000/svg" width="22.917" height="25" viewBox="0 0 22.917 25">
  <path id="gas-station" d="M25.9,8.875l.014-.014L20.75,3.694,19.278,5.167,22.208,8.1a3.467,3.467,0,0,0,1.236,6.708,3.55,3.55,0,0,0,1.389-.292V24.528a1.389,1.389,0,1,1-2.778,0v-6.25A2.786,2.786,0,0,0,19.278,15.5H17.889V5.778A2.786,2.786,0,0,0,15.111,3H6.778A2.786,2.786,0,0,0,4,5.778V28H17.889V17.583h2.083v6.944a3.472,3.472,0,1,0,6.944,0V11.333A3.475,3.475,0,0,0,25.9,8.875ZM15.111,12.722H6.778V5.778h8.333Zm8.333,0a1.389,1.389,0,1,1,1.389-1.389A1.393,1.393,0,0,1,23.444,12.722Z" transform="translate(-4 -3)" fill="#333"/>
</svg>
