<svg xmlns="http://www.w3.org/2000/svg" width="23.339" height="23.333" viewBox="0 0 23.339 23.333">
  <path id="Icon_awesome-instagram" data-name="Icon awesome-instagram" d="M11.667,7.922A5.982,5.982,0,1,0,17.649,13.9,5.973,5.973,0,0,0,11.667,7.922Zm0,9.872A3.889,3.889,0,1,1,15.556,13.9a3.9,3.9,0,0,1-3.889,3.889ZM19.289,7.677a1.4,1.4,0,1,1-1.4-1.4A1.392,1.392,0,0,1,19.289,7.677Zm3.962,1.416A6.905,6.905,0,0,0,21.366,4.2,6.951,6.951,0,0,0,16.477,2.32c-1.926-.109-7.7-.109-9.627,0A6.941,6.941,0,0,0,1.962,4.2,6.928,6.928,0,0,0,.077,9.088c-.109,1.926-.109,7.7,0,9.627A6.905,6.905,0,0,0,1.962,23.6a6.96,6.96,0,0,0,4.889,1.885c1.926.109,7.7.109,9.627,0A6.905,6.905,0,0,0,21.366,23.6a6.951,6.951,0,0,0,1.885-4.889c.109-1.926.109-7.7,0-9.622ZM20.763,20.782A3.938,3.938,0,0,1,18.545,23c-1.536.609-5.181.469-6.878.469S6.319,23.6,4.789,23a3.938,3.938,0,0,1-2.218-2.218C1.962,19.246,2.1,15.6,2.1,13.9s-.135-5.347.469-6.878A3.938,3.938,0,0,1,4.789,4.808C6.325,4.2,9.969,4.34,11.667,4.34s5.347-.135,6.878.469a3.938,3.938,0,0,1,2.218,2.218c.609,1.536.469,5.181.469,6.878S21.372,19.252,20.763,20.782Z" transform="translate(0.005 -2.238)" fill="#333"/>
</svg>
