<svg xmlns="http://www.w3.org/2000/svg" width="144.827" height="100" viewBox="0 0 144.827 100">
  <g id="Group_1" data-name="Group 1" transform="translate(398 -611)">
    <path id="Subtraction_24" data-name="Subtraction 24" d="M39.606,40.517A37.013,37.013,0,0,1,24.17,37.164a39.5,39.5,0,0,1-12.6-9.145,42.842,42.842,0,0,1-8.5-13.564A45.054,45.054,0,0,1,0,0H4.316A40.791,40.791,0,0,0,7.039,12.777,38.557,38.557,0,0,0,14.614,24.97a35.2,35.2,0,0,0,11.234,8.221,32.9,32.9,0,0,0,27.516,0A35.219,35.219,0,0,0,64.6,24.97a38.557,38.557,0,0,0,7.575-12.193A40.792,40.792,0,0,0,74.9,0h4.371A15.723,15.723,0,0,0,83.3,10.236a12.974,12.974,0,0,0,19.507,0A15.724,15.724,0,0,0,106.842,0h4.322a16,16,0,0,0,3.908,10.236,12.311,12.311,0,0,0,18.9,0A16,16,0,0,0,137.876,0h4.316A20.045,20.045,0,0,1,140.8,7.382a19.038,19.038,0,0,1-3.788,6.028,17.6,17.6,0,0,1-5.617,4.064,16.619,16.619,0,0,1-13.758,0,17.6,17.6,0,0,1-5.618-4.064,18.9,18.9,0,0,1-3.047-4.376,18.918,18.918,0,0,1-3.121,4.376,18.016,18.016,0,0,1-5.755,4.064,17.4,17.4,0,0,1-14.093,0,18.016,18.016,0,0,1-5.755-4.064,18.9,18.9,0,0,1-2.611-3.453,44.915,44.915,0,0,1-1.5,4.5,42.842,42.842,0,0,1-8.5,13.564,39.5,39.5,0,0,1-12.6,9.145A37.013,37.013,0,0,1,39.606,40.517Z" transform="translate(-397.951 654.965)" fill="#fff"/>
    <path id="Union_8" data-name="Union 8" d="M4.311,40.518H0a43.4,43.4,0,0,1,3.1-15,41.831,41.831,0,0,1,8.5-13.281A39.483,39.483,0,0,1,24.2,3.283a37.922,37.922,0,0,1,30.871,0,39.471,39.471,0,0,1,12.6,8.954,41.837,41.837,0,0,1,8.5,13.281,43.387,43.387,0,0,1,3.1,15H74.963A39.283,39.283,0,0,0,72.2,27.162q-.087-.22-.177-.438H7.248q-.09.218-.178.438A39.29,39.29,0,0,0,4.312,40.517h0ZM69.427,21.552a37.31,37.31,0,0,0-4.8-6.329A35.172,35.172,0,0,0,53.4,7.173a33.534,33.534,0,0,0-27.516,0,35.18,35.18,0,0,0-11.234,8.05,37.312,37.312,0,0,0-4.8,6.329Z" transform="translate(-398 611)" fill="#fff"/>
    <circle id="Ellipse_51" data-name="Ellipse 51" cx="4.741" cy="4.741" r="4.741" transform="translate(-262.655 642.897)" fill="#fff"/>
    <circle id="Ellipse_52" data-name="Ellipse 52" cx="4.741" cy="4.741" r="4.741" transform="translate(-293.69 642.897)" fill="#fff"/>
    <circle id="Ellipse_53" data-name="Ellipse 53" cx="4.741" cy="4.741" r="4.741" transform="translate(-348.862 701.517)" fill="#fff"/>
    <circle id="Ellipse_54" data-name="Ellipse 54" cx="4.741" cy="4.741" r="4.741" transform="translate(-373.862 701.517)" fill="#fff"/>
    <circle id="Ellipse_42" data-name="Ellipse 42" cx="4.741" cy="4.741" r="4.741" transform="translate(-278.173 630.828)" fill="#fff"/>
  </g>
</svg>
