<svg xmlns="http://www.w3.org/2000/svg" width="25" height="25" viewBox="0 0 25 25">
  <g id="quality_3_" data-name="quality (3)" transform="translate(0 0)">
    <path id="Path_2677" data-name="Path 2677" d="M23.951,7.365,21.4,5.838l-.575-2.38a2.193,2.193,0,0,0-2.305-1.675l-2.92.226L13.925.527a2.189,2.189,0,0,0-2.85,0L9.4,2.008l-2.92-.226A2.181,2.181,0,0,0,4.2,3.371L3.358,6,1.049,7.364a2.188,2.188,0,0,0-.881,2.711l1,2.415-1,2.414a2.186,2.186,0,0,0,.88,2.71L3.6,19.13l.577,2.391A2.193,2.193,0,0,0,6.482,23.2l2.889-.223,1.7,1.5a2.187,2.187,0,0,0,2.85,0l1.7-1.5,2.889.223a2.177,2.177,0,0,0,2.305-1.675l.575-2.38,2.552-1.527a2.188,2.188,0,0,0,.88-2.71l-1-2.414,1-2.415a2.188,2.188,0,0,0-.881-2.709ZM12.5,20.557A8.057,8.057,0,1,1,20.556,12.5,8.066,8.066,0,0,1,12.5,20.557Z" transform="translate(0)" fill="#333"/>
    <path id="Path_2678" data-name="Path 2678" d="M127.592,121a6.592,6.592,0,1,0,6.592,6.592A6.6,6.6,0,0,0,127.592,121Zm4.18,4.912-4.395,4.395a.732.732,0,0,1-1.036,0l-2.93-2.93a.732.732,0,1,1,1.036-1.036l2.412,2.412,3.877-3.877a.732.732,0,1,1,1.036,1.036Z" transform="translate(-115.092 -115.092)" fill="#333"/>
  </g>
</svg>
