<svg xmlns="http://www.w3.org/2000/svg" width="25" height="25" viewBox="0 0 25 25">
  <g id="_45-gauge_-dashboard_-meter_-pressure_-speed_-speedometer_-traffic" data-name="45-gauge,-dashboard,-meter,-pressure,-speed,-speedometer,-traffic" transform="translate(-5 -5)">
    <path id="Shape" d="M17.5,5A12.5,12.5,0,1,1,5,17.5,12.5,12.5,0,0,1,17.5,5Zm7.044,5.456a.658.658,0,0,0-.868-.055l-.062.055-4.777,4.777A2.632,2.632,0,1,0,20.132,17.5a2.526,2.526,0,0,0-.328-1.316l4.741-4.8a.655.655,0,0,0,0-.93ZM17.5,16.184A1.316,1.316,0,1,1,16.184,17.5,1.316,1.316,0,0,1,17.5,16.184Zm7.775-2.253a.658.658,0,0,0-1.2.55,7.207,7.207,0,0,1,.658,3.019.658.658,0,0,0,1.316,0,8.523,8.523,0,0,0-.778-3.568ZM17.5,8.947A8.553,8.553,0,0,0,8.947,17.5a.658.658,0,0,0,1.316,0,7.241,7.241,0,0,1,10.281-6.567A.658.658,0,1,0,21.1,9.739a8.522,8.522,0,0,0-3.6-.792Z" fill="#333"/>
  </g>
</svg>
