<svg xmlns="http://www.w3.org/2000/svg" width="28.729" height="23.333" viewBox="0 0 28.729 23.333">
  <path id="Icon_awesome-twitter" data-name="Icon awesome-twitter" d="M25.776,9.2c.018.255.018.51.018.766,0,7.784-5.924,16.753-16.753,16.753A16.639,16.639,0,0,1,0,24.071a12.181,12.181,0,0,0,1.422.073,11.792,11.792,0,0,0,7.31-2.516,5.9,5.9,0,0,1-5.505-4.083,7.425,7.425,0,0,0,1.112.091,6.227,6.227,0,0,0,1.549-.2,5.889,5.889,0,0,1-4.721-5.779v-.073a5.93,5.93,0,0,0,2.661.747A5.9,5.9,0,0,1,2.005,4.456a16.736,16.736,0,0,0,12.141,6.161A6.647,6.647,0,0,1,14,9.269,5.894,5.894,0,0,1,24.19,5.24a11.592,11.592,0,0,0,3.737-1.422,5.872,5.872,0,0,1-2.589,3.245,11.8,11.8,0,0,0,3.391-.911A12.657,12.657,0,0,1,25.776,9.2Z" transform="translate(0 -3.381)" fill="#333"/>
</svg>
