<svg xmlns="http://www.w3.org/2000/svg" width="33.185" height="23.333" viewBox="0 0 33.185 23.333">
  <path id="Icon_awesome-youtube" data-name="Icon awesome-youtube" d="M33.542,8.151A4.17,4.17,0,0,0,30.608,5.2c-2.588-.7-12.965-.7-12.965-.7s-10.377,0-12.965.7A4.17,4.17,0,0,0,1.743,8.151,43.742,43.742,0,0,0,1.05,16.19a43.742,43.742,0,0,0,.693,8.039,4.108,4.108,0,0,0,2.934,2.906c2.588.7,12.965.7,12.965.7s10.377,0,12.965-.7a4.108,4.108,0,0,0,2.934-2.906,43.743,43.743,0,0,0,.693-8.039,43.743,43.743,0,0,0-.693-8.039ZM14.249,21.124V11.256l8.673,4.934-8.673,4.934Z" transform="translate(-1.05 -4.5)" fill="#333"/>
</svg>
